<svg width="32" height="32" viewBox="0 0 32 32" fill="none" xmlns="http://www.w3.org/2000/svg">
<g clip-path="url(#clip0_2_8)">
<path d="M31.47 11.1175L16.47 3.1175C16.3253 3.04046 16.1639 3.00017 16 3.00017C15.8361 3.00017 15.6747 3.04046 15.53 3.1175L0.529993 11.1175C0.369998 11.2028 0.236194 11.3299 0.142893 11.4854C0.0495918 11.6408 0.000305176 11.8187 0.000305176 12C0.000305176 12.1813 0.0495918 12.3592 0.142893 12.5146C0.236194 12.6701 0.369998 12.7972 0.529993 12.8825L3.99999 14.7338V20.7863C3.99895 21.2774 4.17973 21.7517 4.50749 22.1175C6.14499 23.9413 9.81374 27 16 27C18.0512 27.017 20.087 26.6454 22 25.905V30C22 30.2652 22.1053 30.5196 22.2929 30.7071C22.4804 30.8946 22.7348 31 23 31C23.2652 31 23.5196 30.8946 23.7071 30.7071C23.8946 30.5196 24 30.2652 24 30V24.9388C25.304 24.186 26.4824 23.2341 27.4925 22.1175C27.8203 21.7517 28.001 21.2774 28 20.7863V14.7338L31.47 12.8825C31.63 12.7972 31.7638 12.6701 31.8571 12.5146C31.9504 12.3592 31.9997 12.1813 31.9997 12C31.9997 11.8187 31.9504 11.6408 31.8571 11.4854C31.7638 11.3299 31.63 11.2028 31.47 11.1175ZM16 25C10.5912 25 7.40999 22.3575 5.99999 20.7863V15.8L15.53 20.8825C15.6747 20.9595 15.8361 20.9998 16 20.9998C16.1639 20.9998 16.3253 20.9595 16.47 20.8825L22 17.9338V23.7263C20.425 24.4613 18.44 25 16 25ZM26 20.7813C25.4006 21.4464 24.7299 22.0438 24 22.5625V16.8663L26 15.8V20.7813ZM23.5 14.8675L23.4725 14.8513L16.4725 11.1175C16.2389 10.9982 15.9679 10.9754 15.7177 11.0541C15.4675 11.1327 15.2583 11.3065 15.135 11.538C15.0117 11.7695 14.9843 12.0401 15.0587 12.2916C15.133 12.5431 15.3032 12.7553 15.5325 12.8825L21.375 16L16 18.8663L3.12499 12L16 5.13375L28.875 12L23.5 14.8675Z" fill="#4CAF50"/>
</g>
<defs>
<clipPath id="clip0_2_8">
<rect width="32" height="32" fill="white"/>
</clipPath>
</defs>
</svg>
